{
	"asset":{
		"generator":"Khronos glTF Blender I/O v4.0.44",
		"version":"2.0"
	},
	"scene":0,
	"scenes":[
		{
			"name":"Scene",
			"nodes":[
				0
			]
		}
	],
	"nodes":[
		{
			"mesh":0,
			"name":"Canned Fish 02-Freepoly.org",
			"scale":[
				23.790607452392578,
				23.790607452392578,
				23.790607452392578
			],
			"translation":[
				0.23094290494918823,
				-0.010965202935039997,
				-0.03950614109635353
			]
		}
	],
	"materials":[
		{
			"doubleSided":true,
			"name":"\u6750\u8d28.012",
			"pbrMetallicRoughness":{}
		}
	],
	"meshes":[
		{
			"name":"\u7f51\u683c.009",
			"primitives":[
				{
					"attributes":{
						"POSITION":0,
						"NORMAL":1,
						"TEXCOORD_0":2
					},
					"indices":3,
					"material":0
				}
			]
		}
	],
	"accessors":[
		{
			"bufferView":0,
			"componentType":5126,
			"count":16800,
			"max":[
				0.06758120656013489,
				0.1883360892534256,
				0.06945668905973434
			],
			"min":[
				-0.06739392876625061,
				-1.9157305359840393e-05,
				-0.06552042067050934
			],
			"type":"VEC3"
		},
		{
			"bufferView":1,
			"componentType":5126,
			"count":16800,
			"type":"VEC3"
		},
		{
			"bufferView":2,
			"componentType":5126,
			"count":16800,
			"type":"VEC2"
		},
		{
			"bufferView":3,
			"componentType":5123,
			"count":96714,
			"type":"SCALAR"
		}
	],
	"bufferViews":[
		{
			"buffer":0,
			"byteLength":201600,
			"byteOffset":0,
			"target":34962
		},
		{
			"buffer":0,
			"byteLength":201600,
			"byteOffset":201600,
			"target":34962
		},
		{
			"buffer":0,
			"byteLength":134400,
			"byteOffset":403200,
			"target":34962
		},
		{
			"buffer":0,
			"byteLength":193428,
			"byteOffset":537600,
			"target":34963
		}
	],
	"buffers":[
		{
			"byteLength":731028,
			"uri":"3d.bin"
		}
	]
}
